<?xml version="1.0" encoding="UTF-8" standalone="no"?>
<!DOCTYPE svg PUBLIC "-//W3C//DTD SVG 1.1//EN"
"http://www.w3.org/Graphics/SVG/1.1/DTD/svg11.dtd">
<svg viewBox="0 0 935 1210" version="1.1" xmlns="http://www.w3.org/2000/svg" xmlns:xlink="http://www.w3.org/1999/xlink">
<defs>
<clipPath id="c0_29"><path d="M0,1210V0H935V1210Z"/></clipPath>
<clipPath id="c1_29"><path d="M0,1208.9V0H935V1208.9Z"/></clipPath>
<clipPath id="c2_29"><path d="M277.3,417.1V112.3H916.7V417.1Z"/></clipPath>
<clipPath id="c3_29"><path d="M277.3,883.4V582.1H907.5V883.4Z"/></clipPath>
<style type="text/css"><![CDATA[
.g0_29{
fill: #FFFFFF;
}
]]></style>
</defs>
<path d="M0,0H935V1210H0V0Z" class="g0_29"/>
<path d="M0,0H935V1210H0V0Z" class="g0_29"/>
<path clip-path="url(#c0_29)" d="M0,-33879.9H935V26620H0V-33879.9Z" class="g0_29"/>
<path d="M0,0H935V1208.9H0V0Z" class="g0_29"/>
<path clip-path="url(#c1_29)" d="M0,110H935V1210H0V110Z" class="g0_29"/>
<path d="M275,110H919V421.7H275V110Z" class="g0_29"/>
<path d="M247.5,430.8H796.4v20.7H247.5V430.8Z" class="g0_29"/>
<path d="M275,460.6H802.1v20.7H275V460.6Z" class="g0_29"/>
<path d="M247.5,520.2H825v20.6H247.5V520.2Z" class="g0_29"/>
<path d="M275,550h29.8v20.6H275V550Z" class="g0_29"/>
<path d="M275,579.8H909.8V888H275V579.8Z" class="g0_29"/>
<path d="M485.8,897.2H614.2v20.6H485.8V897.2Z" class="g0_29"/>
<image clip-path="url(#c2_29)" preserveAspectRatio="none" x="277" y="112" width="640" height="305" xlink:href="img/1.jpg"/>
<image clip-path="url(#c3_29)" preserveAspectRatio="none" x="277" y="582" width="630" height="301" xlink:href="img/2.jpg"/>
</svg>