<?xml version="1.0" encoding="UTF-8" standalone="no"?>
<!DOCTYPE svg PUBLIC "-//W3C//DTD SVG 1.1//EN"
"http://www.w3.org/Graphics/SVG/1.1/DTD/svg11.dtd">
<svg viewBox="0 0 935 1210" version="1.1" xmlns="http://www.w3.org/2000/svg" xmlns:xlink="http://www.w3.org/1999/xlink">
<defs>
<clipPath id="c0_7"><path d="M0,1210V0H935V1210Z"/></clipPath>
<clipPath id="c1_7"><path d="M0,1208.9V0H935V1208.9Z"/></clipPath>
<clipPath id="c2_7"><path d="M112.3,998V318.5h715V998Z"/></clipPath>
<style type="text/css"><![CDATA[
.g0_7{
fill: #FFFFFF;
}
.g1_7{
}
]]></style>
</defs>
<path d="M0,0H935V1210H0V0Z" class="g0_7"/>
<path d="M0,0H935V1210H0V0Z" class="g0_7"/>
<path clip-path="url(#c0_7)" d="M0,-7259.9H935V53240H0V-7259.9Z" class="g0_7"/>
<path d="M0,0H935V1208.9H0V0Z" class="g0_7"/>
<path clip-path="url(#c1_7)" d="M0,110H935V1210H0V110Z" class="g0_7"/>
<path d="M275,178.8H778v21.7H275V178.8Z" class="g0_7"/>
<path d="M275,204H378.1v21.7H275V204Z" class="g0_7"/>
<path d="M220,247.5H771.1v21.8H220V247.5Z" class="g0_7"/>
<path d="M110,316.3H829.6v686.3H110V316.3Z" class="g0_7"/>
<path d="M458.3,1024.4H705.8v21.7H458.3v-21.7Z" class="g0_7"/>
<image clip-path="url(#c2_7)" preserveAspectRatio="none" x="112" y="319" width="715" height="679" xlink:href="img/1.jpg"/>
<path d="M220,171.9h73.3V173H220v-1.1Z" class="g1_7"/>
</svg>