<?xml version="1.0" encoding="UTF-8" standalone="no"?>
<!DOCTYPE svg PUBLIC "-//W3C//DTD SVG 1.1//EN"
"http://www.w3.org/Graphics/SVG/1.1/DTD/svg11.dtd">
<svg viewBox="0 0 935 1210" version="1.1" xmlns="http://www.w3.org/2000/svg" xmlns:xlink="http://www.w3.org/1999/xlink">
<defs>
<clipPath id="c0_45"><path d="M0,1210V0H935V1210Z"/></clipPath>
<clipPath id="c1_45"><path d="M0,1208.9V0H935V1208.9Z"/></clipPath>
<style type="text/css"><![CDATA[
.g0_45{
fill: #FFFFFF;
}
]]></style>
</defs>
<path d="M0,0H935V1210H0V0Z" class="g0_45"/>
<path d="M0,0H935V1210H0V0Z" class="g0_45"/>
<path clip-path="url(#c0_45)" d="M0,-53239.9H935V7260H0V-53239.9Z" class="g0_45"/>
<path d="M0,0H935V1208.9H0V0Z" class="g0_45"/>
<path clip-path="url(#c1_45)" d="M0,110H935V1210H0V110Z" class="g0_45"/>
<path d="M137.5,110H362.1v21.8H137.5V110Z" class="g0_45"/>
<path d="M192.5,143.2H480.1V165H192.5V143.2Z" class="g0_45"/>
<path d="M247.5,176.5H444.6v20.6H247.5V176.5Z" class="g0_45"/>
<path d="M192.5,206.3H474.4v20.6H192.5V206.3Z" class="g0_45"/>
<path d="M192.5,236H425.1v20.7H192.5V236Z" class="g0_45"/>
<path d="M192.5,265.8H440v20.7H192.5V265.8Z" class="g0_45"/>
<path d="M192.5,295.6h110v20.7h-110V295.6Z" class="g0_45"/>
<path d="M137.5,355.2H468.6V377H137.5V355.2Z" class="g0_45"/>
<path d="M192.5,388.4H480.1v21.8H192.5V388.4Z" class="g0_45"/>
<path d="M247.5,421.7H444.6v20.6H247.5V421.7Z" class="g0_45"/>
<path d="M192.5,451.5H421.7v20.6H192.5V451.5Z" class="g0_45"/>
<path d="M192.5,481.3H405.6v20.6H192.5V481.3Z" class="g0_45"/>
<path d="M192.5,511h275v20.7h-275V511Z" class="g0_45"/>
<path d="M192.5,540.8h110v20.7h-110V540.8Z" class="g0_45"/>
<path d="M192.5,570.6H773.4v20.7H192.5V570.6Z" class="g0_45"/>
<path d="M220,600.4h98.5V621H220V600.4Z" class="g0_45"/>
<path d="M137.5,660H825v34.4H137.5V660Z" class="g0_45"/>
<path d="M137.5,660H515.6v21.8H137.5V660Z" class="g0_45"/>
<path d="M192.5,693.2H480.1V715H192.5V693.2Z" class="g0_45"/>
<path d="M247.5,726.5H445.7v20.6H247.5V726.5Z" class="g0_45"/>
<path d="M192.5,756.3h212v20.6h-212V756.3Z" class="g0_45"/>
<path d="M192.5,786H413.6v20.7H192.5V786Z" class="g0_45"/>
<path d="M192.5,815.8H505.3v20.7H192.5V815.8Z" class="g0_45"/>
<path d="M192.5,845.6h110v20.7h-110V845.6Z" class="g0_45"/>
</svg>