<?xml version="1.0" encoding="UTF-8" standalone="no"?>
<!DOCTYPE svg PUBLIC "-//W3C//DTD SVG 1.1//EN"
"http://www.w3.org/Graphics/SVG/1.1/DTD/svg11.dtd">
<svg viewBox="0 0 935 1210" version="1.1" xmlns="http://www.w3.org/2000/svg" xmlns:xlink="http://www.w3.org/1999/xlink">
<defs>
<clipPath id="c0_49"><path d="M0,1210V0H935V1210Z"/></clipPath>
<clipPath id="c1_49"><path d="M0,1208.9V0H935V1208.9Z"/></clipPath>
<style type="text/css"><![CDATA[
.g0_49{
fill: #FFFFFF;
}
]]></style>
</defs>
<path d="M0,0H935V1210H0V0Z" class="g0_49"/>
<path d="M0,0H935V1210H0V0Z" class="g0_49"/>
<path clip-path="url(#c0_49)" d="M0,-58079.9H935V2420H0V-58079.9Z" class="g0_49"/>
<path d="M0,0H935V1208.9H0V0Z" class="g0_49"/>
<path clip-path="url(#c1_49)" d="M0,110H935V1210H0V110Z" class="g0_49"/>
<path d="M137.5,110H402.2v21.8H137.5V110Z" class="g0_49"/>
<path d="M192.5,143.2H389.6V165H192.5V143.2Z" class="g0_49"/>
<path d="M247.5,176.5H444.6v20.6H247.5V176.5Z" class="g0_49"/>
<path d="M192.5,206.3H825v30.9H192.5V206.3Z" class="g0_49"/>
<path d="M192.5,206.3H472.1v20.6H192.5V206.3Z" class="g0_49"/>
<path d="M192.5,236H825v31H192.5V236Z" class="g0_49"/>
<path d="M192.5,236H472.1v20.7H192.5V236Z" class="g0_49"/>
<path d="M192.5,265.8H825v31H192.5v-31Z" class="g0_49"/>
<path d="M192.5,265.8H453.8v20.7H192.5V265.8Z" class="g0_49"/>
<path d="M192.5,295.6H825V330H192.5V295.6Z" class="g0_49"/>
<path d="M192.5,295.6H417.1v21.8H192.5V295.6Z" class="g0_49"/>
<path d="M192.5,328.9H825v34.3H192.5V328.9Z" class="g0_49"/>
<path d="M192.5,328.9h369v21.7h-369V328.9Z" class="g0_49"/>
<path d="M110,362.1H825v34.4H110V362.1Z" class="g0_49"/>
<path d="M137.5,395.3H473.2v21.8H137.5V395.3Z" class="g0_49"/>
<path d="M192.5,428.5H389.6v21.8H192.5V428.5Z" class="g0_49"/>
<path d="M247.5,461.8H444.6v20.6H247.5V461.8Z" class="g0_49"/>
<path d="M192.5,491.6H825v30.9H192.5V491.6Z" class="g0_49"/>
<path d="M192.5,491.6H394.2v20.6H192.5V491.6Z" class="g0_49"/>
<path d="M192.5,521.4H825v30.9H192.5V521.4Z" class="g0_49"/>
<path d="M192.5,521.4H394.2V542H192.5V521.4Z" class="g0_49"/>
<path d="M192.5,551.1H825v31H192.5v-31Z" class="g0_49"/>
<path d="M192.5,551.1H819.3v20.7H192.5V551.1Z" class="g0_49"/>
<path d="M192.5,580.9H825v31H192.5v-31Z" class="g0_49"/>
<path d="M220,580.9H724.2v20.7H220V580.9Z" class="g0_49"/>
<path d="M192.5,610.7H825v31H192.5v-31Z" class="g0_49"/>
<path d="M192.5,610.7H300.2v20.7H192.5V610.7Z" class="g0_49"/>
<path d="M110,640.5H825v31H110v-31Z" class="g0_49"/>
<path d="M137.5,670.3H556.9v21.8H137.5V670.3Z" class="g0_49"/>
<path d="M192.5,703.5H389.6v21.8H192.5V703.5Z" class="g0_49"/>
<path d="M247.5,736.8H444.6v20.6H247.5V736.8Z" class="g0_49"/>
<path d="M192.5,766.6H825v30.9H192.5V766.6Z" class="g0_49"/>
<path d="M192.5,766.6h330v20.6h-330V766.6Z" class="g0_49"/>
<path d="M192.5,796.4H825v30.9H192.5V796.4Z" class="g0_49"/>
<path d="M192.5,796.4H358.6V817H192.5V796.4Z" class="g0_49"/>
<path d="M192.5,826.1H825v31H192.5v-31Z" class="g0_49"/>
<path d="M192.5,826.1H300.2v20.7H192.5V826.1Z" class="g0_49"/>
<path d="M110,855.9H825v31H110v-31Z" class="g0_49"/>
<path d="M137.5,885.7H589v21.8H137.5V885.7Z" class="g0_49"/>
<path d="M192.5,919H389.6v21.7H192.5V919Z" class="g0_49"/>
<path d="M247.5,952.2H444.6v20.6H247.5V952.2Z" class="g0_49"/>
<path d="M192.5,982H825v30.9H192.5V982Z" class="g0_49"/>
<path d="M192.5,982H377v20.6H192.5V982Z" class="g0_49"/>
<path d="M192.5,1011.8H825v30.9H192.5v-30.9Z" class="g0_49"/>
<path d="M192.5,1011.8h181v20.6h-181v-20.6Z" class="g0_49"/>
<path d="M192.5,1041.6H825v30.9H192.5v-30.9Z" class="g0_49"/>
<path d="M192.5,1041.6H362.1v20.6H192.5v-20.6Z" class="g0_49"/>
</svg>