<?xml version="1.0" encoding="UTF-8" standalone="no"?>
<!DOCTYPE svg PUBLIC "-//W3C//DTD SVG 1.1//EN"
"http://www.w3.org/Graphics/SVG/1.1/DTD/svg11.dtd">
<svg viewBox="0 0 935 1210" version="1.1" xmlns="http://www.w3.org/2000/svg" xmlns:xlink="http://www.w3.org/1999/xlink">
<defs>
<clipPath id="c0_10"><path d="M0,1210V0H935V1210Z"/></clipPath>
<clipPath id="c1_10"><path d="M0,1208.9V0H935V1208.9Z"/></clipPath>
<clipPath id="c2_10"><path d="M167.3,641.7V301.4h715V641.7Z"/></clipPath>
<style type="text/css"><![CDATA[
.g0_10{
fill: #FFFFFF;
}
.g1_10{
}
]]></style>
</defs>
<path d="M0,0H935V1210H0V0Z" class="g0_10"/>
<path d="M0,0H935V1210H0V0Z" class="g0_10"/>
<path clip-path="url(#c0_10)" d="M0,-10889.9H935V49610H0V-10889.9Z" class="g0_10"/>
<path d="M0,0H935V1208.9H0V0Z" class="g0_10"/>
<path clip-path="url(#c1_10)" d="M0,110H935V1210H0V110Z" class="g0_10"/>
<path d="M220,186.8H697.8v21.7H220V186.8Z" class="g0_10"/>
<path d="M192.5,212H708.1v21.8H192.5V212Z" class="g0_10"/>
<path d="M165,255.5H611.9v21.8H165V255.5Z" class="g0_10"/>
<path d="M165,299.1H884.6V646.3H165V299.1Z" class="g0_10"/>
<path d="M458.3,668H719.6v21.8H458.3V668Z" class="g0_10"/>
<image clip-path="url(#c2_10)" preserveAspectRatio="none" x="167" y="301" width="715" height="341" xlink:href="img/1.jpg"/>
<path d="M165,178.8H373.5v1.1H165v-1.1Z" class="g1_10"/>
</svg>