<?xml version="1.0" encoding="UTF-8" standalone="no"?>
<!DOCTYPE svg PUBLIC "-//W3C//DTD SVG 1.1//EN"
"http://www.w3.org/Graphics/SVG/1.1/DTD/svg11.dtd">
<svg viewBox="0 0 935 1210" version="1.1" xmlns="http://www.w3.org/2000/svg" xmlns:xlink="http://www.w3.org/1999/xlink">
<defs>
<clipPath id="c0_12"><path d="M0,1210V0H935V1210Z"/></clipPath>
<clipPath id="c1_12"><path d="M0,1208.9V0H935V1208.9Z"/></clipPath>
<clipPath id="c2_12"><path d="M167.3,859.4V257.8h715V859.4Z"/></clipPath>
<style type="text/css"><![CDATA[
.g0_12{
fill: #FFFFFF;
}
.g1_12{
}
]]></style>
</defs>
<path d="M0,0H935V1210H0V0Z" class="g0_12"/>
<path d="M0,0H935V1210H0V0Z" class="g0_12"/>
<path clip-path="url(#c0_12)" d="M0,-13309.9H935V47190H0V-13309.9Z" class="g0_12"/>
<path d="M0,0H935V1208.9H0V0Z" class="g0_12"/>
<path clip-path="url(#c1_12)" d="M0,110H935V1210H0V110Z" class="g0_12"/>
<path d="M220,143.2H797.5V165H220V143.2Z" class="g0_12"/>
<path d="M220,168.4H802.1v21.8H220V168.4Z" class="g0_12"/>
<path d="M165,212H591.3v21.8H165V212Z" class="g0_12"/>
<path d="M165,255.5H884.6V864H165V255.5Z" class="g0_12"/>
<path d="M513.3,885.7H749.4v21.8H513.3V885.7Z" class="g0_12"/>
<image clip-path="url(#c2_12)" preserveAspectRatio="none" x="167" y="258" width="715" height="601" xlink:href="img/1.jpg"/>
<path d="M165,135.2H344.9v1.2H165v-1.2Z" class="g1_12"/>
</svg>