<?xml version="1.0" encoding="UTF-8" standalone="no"?>
<!DOCTYPE svg PUBLIC "-//W3C//DTD SVG 1.1//EN"
"http://www.w3.org/Graphics/SVG/1.1/DTD/svg11.dtd">
<svg viewBox="0 0 935 1210" version="1.1" xmlns="http://www.w3.org/2000/svg" xmlns:xlink="http://www.w3.org/1999/xlink">
<defs>
<clipPath id="c0"><path d="M0,1210V0H935V1210Z"/></clipPath>
<clipPath id="c1"><path d="M0,1208.9V0H935V1208.9Z"/></clipPath>
<style type="text/css"><![CDATA[
.g0{
fill: #FFFFFF;
}
]]></style>
</defs>
<path d="M0,0H935V1210H0V0Z" class="g0"/>
<path d="M0,0H935V1210H0V0Z" class="g0"/>
<path clip-path="url(#c0)" d="M0,-59289.9H935V1210H0V-59289.9Z" class="g0"/>
<path d="M0,0H935V1208.9H0V0Z" class="g0"/>
<path clip-path="url(#c1)" d="M0,110H935V1210H0V110Z" class="g0"/>
<path d="M192.5,110H825v30.9H192.5V110Z" class="g0"/>
<path d="M192.5,110H303.6v20.6H192.5V110Z" class="g0"/>
<path d="M192.5,139.8H825v30.9H192.5V139.8Z" class="g0"/>
<path d="M192.5,139.8H609.6v20.6H192.5V139.8Z" class="g0"/>
<path d="M247.5,169.6H825v30.9H247.5V169.6Z" class="g0"/>
<path d="M247.5,169.6H795.2v20.6H247.5V169.6Z" class="g0"/>
<path d="M247.5,199.4H825v30.9H247.5V199.4Z" class="g0"/>
<path d="M275,199.4h32.1V220H275V199.4Z" class="g0"/>
<path d="M247.5,229.2H825v30.9H247.5V229.2Z" class="g0"/>
<path d="M247.5,229.2h149v20.6h-149V229.2Z" class="g0"/>
<path d="M247.5,259H825v30.9H247.5V259Z" class="g0"/>
<path d="M247.5,259H525.9v20.6H247.5V259Z" class="g0"/>
</svg>