<?xml version="1.0" encoding="UTF-8" standalone="no"?>
<!DOCTYPE svg PUBLIC "-//W3C//DTD SVG 1.1//EN"
"http://www.w3.org/Graphics/SVG/1.1/DTD/svg11.dtd">
<svg viewBox="0 0 935 1210" version="1.1" xmlns="http://www.w3.org/2000/svg" xmlns:xlink="http://www.w3.org/1999/xlink">
<defs>
<clipPath id="c0_43"><path d="M0,1210V0H935V1210Z"/></clipPath>
<clipPath id="c1_43"><path d="M0,1208.9V0H935V1208.9Z"/></clipPath>
<clipPath id="c2_43"><path d="M222.3,731V112.3H922.4V731Z"/></clipPath>
<style type="text/css"><![CDATA[
.g0_43{
fill: #FFFFFF;
}
]]></style>
</defs>
<path d="M0,0H935V1210H0V0Z" class="g0_43"/>
<path d="M0,0H935V1210H0V0Z" class="g0_43"/>
<path clip-path="url(#c0_43)" d="M0,-50819.9H935V9680H0V-50819.9Z" class="g0_43"/>
<path d="M0,0H935V1208.9H0V0Z" class="g0_43"/>
<path clip-path="url(#c1_43)" d="M0,110H935V1210H0V110Z" class="g0_43"/>
<path d="M220,110H924.7V735.6H220V110Z" class="g0_43"/>
<path d="M192.5,744.8H325.4v20.6H192.5V744.8Z" class="g0_43"/>
<path d="M192.5,834.2H775.7v20.6H192.5V834.2Z" class="g0_43"/>
<path d="M192.5,864h487v20.6h-487V864Z" class="g0_43"/>
<image clip-path="url(#c2_43)" preserveAspectRatio="none" x="222" y="112" width="700" height="619" xlink:href="img/1.jpg"/>
</svg>