<?xml version="1.0" encoding="UTF-8" standalone="no"?>
<!DOCTYPE svg PUBLIC "-//W3C//DTD SVG 1.1//EN"
"http://www.w3.org/Graphics/SVG/1.1/DTD/svg11.dtd">
<svg viewBox="0 0 935 1210" version="1.1" xmlns="http://www.w3.org/2000/svg" xmlns:xlink="http://www.w3.org/1999/xlink">
<defs>
<clipPath id="c0_6"><path d="M0,1210V0H935V1210Z"/></clipPath>
<clipPath id="c1_6"><path d="M0,1208.9V0H935V1208.9Z"/></clipPath>
<clipPath id="c2_6"><path d="M222.3,955.6V293.3H893.8V955.6Z"/></clipPath>
<style type="text/css"><![CDATA[
.g0_6{
fill: #FFFFFF;
}
.g1_6{
}
]]></style>
</defs>
<path d="M0,0H935V1210H0V0Z" class="g0_6"/>
<path d="M0,0H935V1210H0V0Z" class="g0_6"/>
<path clip-path="url(#c0_6)" d="M0,-6049.9H935V54450H0V-6049.9Z" class="g0_6"/>
<path d="M0,0H935V1208.9H0V0Z" class="g0_6"/>
<path clip-path="url(#c1_6)" d="M0,110H935V1210H0V110Z" class="g0_6"/>
<path d="M275,178.8H796.4v21.7H275V178.8Z" class="g0_6"/>
<path d="M275,204h50.4v21.7H275V204Z" class="g0_6"/>
<path d="M220,247.5H788.3v21.8H220V247.5Z" class="g0_6"/>
<path d="M220,291H896V960.2H220V291Z" class="g0_6"/>
<path d="M513.3,982H776.9v21.8H513.3V982Z" class="g0_6"/>
<image clip-path="url(#c2_6)" preserveAspectRatio="none" x="222" y="293" width="672" height="663" xlink:href="img/1.jpg"/>
<path d="M220,171.9h90.5V173H220v-1.1Z" class="g1_6"/>
</svg>