<?xml version="1.0" encoding="UTF-8" standalone="no"?>
<!DOCTYPE svg PUBLIC "-//W3C//DTD SVG 1.1//EN"
"http://www.w3.org/Graphics/SVG/1.1/DTD/svg11.dtd">
<svg viewBox="0 0 935 1210" version="1.1" xmlns="http://www.w3.org/2000/svg" xmlns:xlink="http://www.w3.org/1999/xlink">
<defs>
<clipPath id="c0_1"><path d="M0,1210V0H935V1210Z"/></clipPath>
<clipPath id="c1_1"><path d="M0,1208.9V0H935V1208.9Z"/></clipPath>
<clipPath id="c2_1"><path d="M322,1023.2V928.1H613v95.1Z"/></clipPath>
<clipPath id="c3_1"><path d="M105.4,469.8V276.1H829.6V469.8Z"/></clipPath>
<style type="text/css"><![CDATA[
.g0_1{
fill: #FFFFFF;
}
.g1_1{
}
]]></style>
</defs>
<path d="M0,0H935V1210H0V0Z" class="g0_1"/>
<path d="M0,0H935V1210H0V0Z" class="g0_1"/>
<path clip-path="url(#c0_1)" d="M0,0H935V60500H0V0Z" class="g0_1"/>
<path d="M0,0H935V1208.9H0V0Z" class="g0_1"/>
<path clip-path="url(#c1_1)" d="M0,110H935V1210H0V110Z" class="g0_1"/>
<path d="M332.3,1047.3H645.1v20.6H332.3v-20.6Z" class="g0_1"/>
<image clip-path="url(#c2_1)" preserveAspectRatio="none" x="322" y="928" width="291" height="95" xlink:href="img/1.png"/>
<path d="M289.9,1064.5H645.1v1.1H289.9v-1.1Z" class="g1_1"/>
<image clip-path="url(#c3_1)" preserveAspectRatio="none" x="105" y="276" width="725" height="194" xlink:href="img/2.png"/>
</svg>