<?xml version="1.0" encoding="UTF-8" standalone="no"?>
<!DOCTYPE svg PUBLIC "-//W3C//DTD SVG 1.1//EN"
"http://www.w3.org/Graphics/SVG/1.1/DTD/svg11.dtd">
<svg viewBox="0 0 935 1210" version="1.1" xmlns="http://www.w3.org/2000/svg" xmlns:xlink="http://www.w3.org/1999/xlink">
<defs>
<clipPath id="c0_25"><path d="M0,1210V0H935V1210Z"/></clipPath>
<clipPath id="c1_25"><path d="M0,1208.9V0H935V1208.9Z"/></clipPath>
<clipPath id="c2_25"><path d="M167.3,598.1V257.8h715V598.1Z"/></clipPath>
<style type="text/css"><![CDATA[
.g0_25{
fill: #FFFFFF;
}
.g1_25{
}
]]></style>
</defs>
<path d="M0,0H935V1210H0V0Z" class="g0_25"/>
<path d="M0,0H935V1210H0V0Z" class="g0_25"/>
<path clip-path="url(#c0_25)" d="M0,-29039.9H935V31460H0V-29039.9Z" class="g0_25"/>
<path d="M0,0H935V1208.9H0V0Z" class="g0_25"/>
<path clip-path="url(#c1_25)" d="M0,110H935V1210H0V110Z" class="g0_25"/>
<path d="M220,143.2H821.6V165H220V143.2Z" class="g0_25"/>
<path d="M220,168.4h69.9v21.8H220V168.4Z" class="g0_25"/>
<path d="M165,212H586.7v21.8H165V212Z" class="g0_25"/>
<path d="M165,255.5H884.6V602.7H165V255.5Z" class="g0_25"/>
<path d="M568.3,624.5H690.9v21.8H568.3V624.5Z" class="g0_25"/>
<image clip-path="url(#c2_25)" preserveAspectRatio="none" x="167" y="258" width="715" height="340" xlink:href="img/1.jpg"/>
<path d="M165,135.2H334.6v1.2H165v-1.2Z" class="g1_25"/>
</svg>